<svg aria-hidden="true" style="position: absolute; width: 0; height: 0; overflow: hidden;" version="1.1" xmlns="http://www.w3.org/2000/svg" xmlns:xlink="http://www.w3.org/1999/xlink">
<defs>
<symbol id="icon-logo" viewBox="0 0 32 32">
<path fill="#c75400" style="fill: var(--color1, #c75400)" d="M20.763 7.096c0-0.14 2.402-4.244 6.974-4.244 0 0 0.277 5.736-2.817 9.56l-4.157-5.316z"></path>
<path fill="#fff" style="fill: var(--color2, #fff)" d="M21.964 7.489c0-0.099 1.642-2.993 4.767-2.993 0 0 0.19 4.046-1.926 6.743l-2.841-3.75z"></path>
<path fill="#c75400" style="fill: var(--color1, #c75400)" d="M11.237 7.096c0-0.14-2.402-4.244-6.974-4.244 0 0-0.277 5.736 2.817 9.56l4.157-5.316z"></path>
<path fill="#fff" style="fill: var(--color2, #fff)" d="M10.036 7.489c0-0.099-1.642-2.993-4.767-2.993 0 0-0.19 4.046 1.926 6.743l2.841-3.75z"></path>
<path fill="#db5c00" style="fill: var(--color3, #db5c00)" d="M28.587 15.878c2.113 0.545 3.057 2.088 3.057 2.088-0.315-5.629-8.455-12.507-15.645-12.507s-15.33 6.878-15.645 12.507c0 0 0.944-1.543 3.057-2.088 0 0-4.046 2.315-3.327 6.401 1.933-2.451 7.418-3.995 10.025-2.724s2.338 3.632 2.652 5.493c0.179 1.058 0.394 2.21 1.105 2.787 0.54 0.438 1.511 0.436 2.132 0.436s1.591 0.002 2.132-0.436c0.711-0.577 0.926-1.729 1.105-2.787 0.315-1.861 0.045-4.222 2.652-5.493s8.092 0.272 10.025 2.724c0.72-4.085-3.327-6.401-3.327-6.401z"></path>
<path fill="#fff" style="fill: var(--color2, #fff)" d="M31.915 22.279c-1.301-1.201-9.622-3.435-13.358 2.898 0 0-0.373-3.163 0-3.807 1.47-2.536 7.469-6.623 13.358 0.91z"></path>
<path fill="#fff" style="fill: var(--color2, #fff)" d="M0.085 22.279c1.301-1.201 9.622-3.435 13.358 2.898 0 0 0.373-3.163 0-3.807-1.47-2.536-7.469-6.623-13.358 0.91z"></path>
<path fill="#fff" style="fill: var(--color2, #fff)" d="M16 26.057l-2.303 1.87c0 0 0.373 1.22 2.303 1.22s2.303-1.22 2.303-1.22l-2.303-1.87z"></path>
<path fill="#db5c00" style="fill: var(--color3, #db5c00)" d="M10.111 18.519c2.608 1.462 2.338 4.178 2.652 6.32 0.179 1.217 0.394 2.543 1.105 3.207 0.54 0.504 1.511 0.501 2.132 0.501s1.591 0.003 2.132-0.501c0.711-0.664 0.926-1.99 1.105-3.207 0.315-2.141 0.045-4.857 2.652-6.32s-14.386-1.462-11.778 0z"></path>
<path fill="#263138" style="fill: var(--color4, #263138)" d="M18.556 16.617c0 0 2.49-0.431 3.737-2.213 0 0-1.19-1.307-2.672-0.205-0.995 0.74-1.065 2.418-1.065 2.418z"></path>
<path fill="#db8b08" style="fill: var(--color5, #db8b08)" d="M21.067 14.858c0 0.408-0.328 0.739-0.732 0.739s-0.732-0.331-0.732-0.739c0-0.408 0.328-0.739 0.732-0.739s0.732 0.331 0.732 0.739z"></path>
<path fill="#fff" style="fill: var(--color2, #fff)" d="M20.425 14.746c0 0.154-0.123 0.278-0.275 0.278s-0.275-0.125-0.275-0.278c0-0.154 0.123-0.278 0.275-0.278s0.275 0.125 0.275 0.278z"></path>
<path fill="#263138" style="fill: var(--color4, #263138)" d="M13.444 16.617c0 0-2.49-0.431-3.737-2.213 0 0 1.19-1.307 2.672-0.205 0.995 0.74 1.065 2.418 1.065 2.418z"></path>
<path fill="#db8b08" style="fill: var(--color5, #db8b08)" d="M12.398 14.858c0 0.408-0.328 0.739-0.732 0.739s-0.732-0.331-0.732-0.739c0-0.408 0.328-0.739 0.732-0.739s0.732 0.331 0.732 0.739z"></path>
<path fill="#fff" style="fill: var(--color2, #fff)" d="M11.755 14.746c0 0.154-0.123 0.278-0.275 0.278s-0.275-0.125-0.275-0.278c0-0.154 0.123-0.278 0.275-0.278s0.275 0.125 0.275 0.278z"></path>
<path fill="#263138" style="fill: var(--color4, #263138)" d="M16 25.346c-0.952 0-1.696 0.205-2.058 0.672 0 0 1.101 1.661 2.058 1.661s2.058-1.661 2.058-1.661c-0.363-0.467-1.106-0.672-2.058-0.672z"></path>
<path fill="#3c454a" style="fill: var(--color6, #3c454a)" opacity="0.8" d="M16 25.697c0.86 0 1.574 0.102 2.054 0.329 0.003-0.004 0.004-0.006 0.004-0.006-0.363-0.468-1.106-0.672-2.058-0.672s-1.696 0.205-2.058 0.672c0 0 0.002 0.003 0.004 0.006 0.48-0.226 1.195-0.329 2.054-0.329z"></path>
<path fill="#fff" style="fill: var(--color2, #fff)" opacity="0.12" d="M16 5.459c-1.692 0-3.436 0.385-5.119 1.041-0.823-1.171-3.065-3.647-6.617-3.647 0 0-0.168 3.491 1.227 6.842-2.915 2.41-4.979 5.493-5.135 8.272 0 0 0.944-1.543 3.057-2.088 0 0-4.045 2.315-3.327 6.4-0 0-0 0.001-0.001 0.001s0-0 0.001-0.001 0 0 0 0.001c0.001-0.001 0.001-0.002 0.002-0.002 1.221-1.121 8.535-3.133 12.543 1.738 0.039 0.355 0.076 0.702 0.132 1.034 0.079 0.464 0.164 0.946 0.295 1.39 0.148 0.574 0.353 1.093 0.672 1.462l-0.033 0.027c0 0 0.373 1.22 2.303 1.22v-23.688z"></path>
</symbol>
<symbol id="icon-menu" viewBox="0 0 32 32">
<path d="M2 6h28v6h-28zM2 14h28v6h-28zM2 22h28v6h-28z"></path>
</symbol>
<symbol id="icon-menu_alt" viewBox="0 0 48 32">
<path d="M0 5.333v-5.333h48v5.333h-48zM0 18.667h48v-5.333h-48v5.333zM0 32h48v-5.333h-48v5.333z"></path>
</symbol>
<symbol id="icon-close" viewBox="0 0 32 32">
<path d="M31.439 3.166l-3.166-3.166-12.553 12.553-12.553-12.553-3.166 3.166 12.553 12.553-12.553 12.553 3.166 3.166 12.553-12.553 12.553 12.553 3.166-3.166-12.553-12.553 12.553-12.553z"></path>
</symbol>
</defs>
</svg>
